<svg xmlns="http://www.w3.org/2000/svg" viewBox="0 0 38.452 29.063"><defs><style>.cls-1{fill:#fff;}</style></defs><g id="Layer_2" data-name="Layer 2"><g id="Layer_1-2" data-name="Layer 1"><path class="cls-1" d="M13.563,0c1.729.529,1.264,2,1.352,3.194l2.3,1.037c.83-.492,1.237-1.737,2.477-1.625,1,.09,1.464.972,2.058,1.607A1.976,1.976,0,0,1,22.3,5.506a2.525,2.525,0,0,1-.693,1.252,8.827,8.827,0,0,1-1.063.952,10.2,10.2,0,0,1,.611,1.511c.149.681.479.962,1.178.848a4.521,4.521,0,0,1,.966,0,1.523,1.523,0,0,1,1.593,1.667c.01.546.016,1.093,0,1.638a1.514,1.514,0,0,1-1.49,1.54.231.231,0,0,1-.074,0c-1.635-.419-2.3.521-2.62,1.9a.819.819,0,0,0,.137.618c.3.365.663.669.984,1.014a1.51,1.51,0,0,1,0,2.3c-.376.4-.768.778-1.17,1.147a1.53,1.53,0,0,1-2.26,0c-.413-.389-.772-.837-1.135-1.236-.763.338-1.424.61-2.06.93a.692.692,0,0,0-.3.481c-.045.418.005.844-.024,1.265a1.533,1.533,0,0,1-1.673,1.59c-.5.01-.993.009-1.49,0-1.083-.019-1.754-.563-1.68-1.628.079-1.127-.233-1.747-1.4-1.9a4.343,4.343,0,0,1-1.1-.474c-.762.486-1.181,1.622-2.3,1.4a3.023,3.023,0,0,1-1.352-.812c-.6-.563-1.508-1.1-1.284-2.033a8.037,8.037,0,0,1,1.237-2.075c-.269-.656-.541-1.429-.912-2.15a.939.939,0,0,0-.765-.326A2.059,2.059,0,0,1,0,13.861V11.178a1.987,1.987,0,0,1,2.124-1.136A.977.977,0,0,0,2.9,9.716c.374-.745.647-1.54.969-2.345-.084-.09-.183-.2-.286-.3-1.4-1.428-1.345-1.909.024-3.375,1.416-1.515,2.4-1.352,3.5-.006a.7.7,0,0,0,.594.216C8.471,3.64,9.213,3.313,10,2.993,10.021,1.826,9.746.492,11.327,0ZM12.419,17.146A4.643,4.643,0,1,0,7.8,12.5,4.648,4.648,0,0,0,12.419,17.146Z"/><path class="cls-1" d="M31.745,29.063l-1.012-1.409.17-.164a6.968,6.968,0,0,1-.78-.166.861.861,0,0,0-1.2.442c-.3.548-.818.578-1.344.249-.105-.065-.208-.134-.31-.2-1.048-.72-1.076-.912-.28-2.143a6.913,6.913,0,0,1-.476-.71c-.247-.481-.52-.849-1.136-.541a.377.377,0,0,1-.219.018c-.941-.176-.817-1-.976-1.639-.132-.529.07-1.035.607-1.094.75-.082.895-.524.972-1.116a5.772,5.772,0,0,1,.154-.639c-1.182-1.076-1.205-1.224-.374-2.347.565-.764.8-.769,2.039-.015a3.333,3.333,0,0,1,.654-.416c.6-.217.753-.561.568-1.185a.811.811,0,0,1,.679-1.055,2.609,2.609,0,0,1,1.089-.161,1.61,1.61,0,0,1,.888.588c.191.255.1.8.31.943a4.48,4.48,0,0,0,1.317.395c1.247-1.449,1.268-1.454,2.4-.651.858.609.856.767-.053,2.341.175.29.345.616.561.906a.586.586,0,0,0,.417.2c1.556-.026,1.556-.031,2.046,1.372v.6a8.094,8.094,0,0,1-1.213.7c-.324.124-.7.082-.7.576-.008.447-.35.89.3,1.269.974.57,1.005.958.391,1.858-.7,1.035-.953,1.08-2.033.378-.122-.08-.254-.144-.41-.23-.4.482-1.356.5-1.059,1.522.234.806-.077,1.192-.894,1.363-.213.044-.423.106-.635.161ZM28.62,21.811a2.691,2.691,0,0,0,2.625,2.759,2.722,2.722,0,0,0,2.73-2.666,2.678,2.678,0,0,0-5.355-.093Z"/></g></g></svg>