<svg xmlns="http://www.w3.org/2000/svg" viewBox="0 0 800 353"><defs><style>.cls-1{fill:#4b4b59;}.cls-2,.cls-3{fill:none;stroke:#4b4b59;stroke-miterlimit:10;}.cls-3{stroke-width:3px;}</style></defs><g id="Layer_2" data-name="Layer 2"><g id="Layer_1-2" data-name="Layer 1"><path class="cls-1" d="M799,1V352H1V1H799m1-1H0V353H800V0Z"/><line class="cls-2" y1="308.87" x2="800" y2="308.87"/><line class="cls-2" y1="264.75" x2="800" y2="264.75"/><line class="cls-2" y1="220.62" x2="800" y2="220.62"/><line class="cls-3" y1="176.5" x2="800" y2="176.5"/><line class="cls-2" y1="132.37" x2="800" y2="132.37"/><line class="cls-2" y1="88.25" x2="800" y2="88.25"/><line class="cls-2" y1="44.13" x2="800" y2="44.13"/><line class="cls-2" x1="733.33" x2="733.33" y2="353"/><line class="cls-2" x1="666.67" x2="666.67" y2="353"/><line class="cls-2" x1="600" x2="600" y2="353"/><line class="cls-2" x1="533.33" x2="533.33" y2="353"/><line class="cls-2" x1="466.67" x2="466.67" y2="353"/><line class="cls-3" x1="400" x2="400" y2="353"/><line class="cls-2" x1="333.33" x2="333.33" y2="353"/><line class="cls-2" x1="266.67" x2="266.67" y2="353"/><line class="cls-2" x1="200" x2="200" y2="353"/><line class="cls-2" x1="133.33" x2="133.33" y2="353"/><line class="cls-2" x1="66.67" x2="66.67" y2="353"/></g></g></svg>