<svg xmlns="http://www.w3.org/2000/svg" viewBox="0 0 26 26"><defs><style>.cls-1{fill:#fff;}</style></defs><g id="Layer_2" data-name="Layer 2"><g id="Layer_1-2" data-name="Layer 1"><path class="cls-1" d="M14,26H12a2.74,2.74,0,0,0-.39-.09A12.71,12.71,0,0,1,.69,17.05,22.39,22.39,0,0,1,0,14V12c0-.15.08-.29.1-.44A12.88,12.88,0,0,1,9.27.57C10.16.31,11.1.19,12,0h2c.13,0,.26.08.39.1A12.67,12.67,0,0,1,25.18,8.57,24.42,24.42,0,0,1,26,12v2c0,.15-.08.3-.1.44a12.73,12.73,0,0,1-8.47,10.76A24.42,24.42,0,0,1,14,26ZM13,2.34A10.66,10.66,0,1,0,23.66,13,10.72,10.72,0,0,0,13,2.34Z"/><path class="cls-1" d="M14.18,15.71c0,1.18,0,2.35,0,3.52a1.15,1.15,0,0,1-.84,1.19A1,1,0,0,1,12.07,20a1.71,1.71,0,0,1-.24-.86q0-3.37,0-6.76A1.17,1.17,0,0,1,13,11.06c.7,0,1.14.49,1.16,1.31,0,1.11,0,2.23,0,3.34Z"/><path class="cls-1" d="M13,5.54a1.54,1.54,0,0,1,1.53,1.6,1.56,1.56,0,0,1-3.12-.06A1.54,1.54,0,0,1,13,5.54Z"/></g></g></svg>