<svg xmlns="http://www.w3.org/2000/svg" viewBox="0 0 59.51 29.73"><defs><style>.cls-1{fill:#fff;}</style></defs><g id="Layer_2" data-name="Layer 2"><g id="Layer_1-2" data-name="Layer 1"><path class="cls-1" d="M59.51,15l-2.24,1.29h-.1v-1H53.59q-1,2.05-2,4.11c-.35.7-.67,1.41-1,2.1a4.46,4.46,0,0,1-1.76,1.89,4,4,0,0,1-4.46-.2A6.51,6.51,0,0,1,42,20.62c-.83-1.66-1.6-3.34-2.38-5a.44.44,0,0,0-.48-.31q-4.71,0-9.4,0c-.25,0-.37.08-.43.3a1.83,1.83,0,0,1-.14.32,5.45,5.45,0,0,0-.65,3c0,3.49,0,7,0,10.47v.37H28V18.61a2.82,2.82,0,0,0-.17.25c-.47.86-.92,1.73-1.4,2.58A6.14,6.14,0,0,1,25,23.14a3.68,3.68,0,0,1-4.33.39,6.15,6.15,0,0,1-2.69-3q-1.07-2.49-2.1-5a.4.4,0,0,0-.46-.29c-3.3,0-6.6,0-9.91,0a.4.4,0,0,0-.46.33c-.07.25-.18.48-.27.72A.92.92,0,0,1,3,15.72c0-.13.09-.26.15-.43H1.46c-.33,0-.66,0-1,0A1.78,1.78,0,0,1,0,15.11v-.24c.15-.06.29-.18.44-.18q1.35,0,2.7,0a.35.35,0,0,0,.39-.26A25,25,0,0,1,6.48,9,7.28,7.28,0,0,1,8.56,7,3.21,3.21,0,0,1,12.1,7a8.14,8.14,0,0,1,2.17,2.09,28.79,28.79,0,0,1,3.05,5.3.44.44,0,0,0,.48.31h9.52c.43,0,.59-.15.64-.57A.75.75,0,0,0,28,14V2.38H26.89L28.27,0l1.36,2.36h-1V12.55h0l.12-.25a17.42,17.42,0,0,1,1.72-3.25A6.58,6.58,0,0,1,33,6.81a3.59,3.59,0,0,1,4.06.5,8.07,8.07,0,0,1,2.15,2.92c.66,1.39,1.29,2.79,1.92,4.19a.39.39,0,0,0,.42.27l10.06,0a.71.71,0,0,0,.41-.15.94.94,0,0,1,1.27,0,.52.52,0,0,0,.26.16h3.61V13.61l1.26.73,1.1.59Zm-8,.32h-10c.18.41.35.8.53,1.18.57,1.17,1.12,2.36,1.74,3.51a4.34,4.34,0,0,0,1.79,1.86,2.1,2.1,0,0,0,2.64-.37,5.11,5.11,0,0,0,.85-1.2c.57-1.11,1.1-2.24,1.64-3.36Zm-33.76,0a1,1,0,0,0,0,.12c.62,1.49,1.23,3,1.87,4.47a4.19,4.19,0,0,0,1.86,2,1.79,1.79,0,0,0,2.34-.25A6.18,6.18,0,0,0,25,20.16c.81-1.51,1.56-3.05,2.32-4.59,0-.08.07-.17.11-.27ZM5.41,14.66h10c-.23-.45-.43-.86-.65-1.27a17.29,17.29,0,0,0-2.42-3.73A7.81,7.81,0,0,0,11,8.5a1.22,1.22,0,0,0-1.48,0A8.58,8.58,0,0,0,8.35,9.58a14.72,14.72,0,0,0-2,3.23C6,13.41,5.72,14,5.41,14.66Zm33.8,0a1.09,1.09,0,0,0-.05-.14c-.57-1.24-1.14-2.5-1.74-3.74a6.09,6.09,0,0,0-1.35-1.91,1.94,1.94,0,0,0-2.67-.2,5.21,5.21,0,0,0-1.75,2c-.55,1-1,2.11-1.54,3.17-.13.28-.24.56-.36.87Z"/></g></g></svg>