<svg xmlns="http://www.w3.org/2000/svg" viewBox="0 0 40 480"><defs><style>.cls-1{fill:#31313a;}.cls-2{fill:#2a2a33;}</style></defs><g id="Layer_2" data-name="Layer 2"><g id="Layer_1-2" data-name="Layer 1"><polygon class="cls-1" points="40 480 0 480 0 366.557 0 0 40 0 40 480"/><path class="cls-2" d="M0,0V42.667H0a5.926,5.926,0,0,1,5.065,2.848L20.938,71.629A10.482,10.482,0,0,0,29.9,76.667H40V0"/><path class="cls-2" d="M.094,366.7h0a5.053,5.053,0,0,0,4.563-2.988L21.4,326.317A7.3,7.3,0,0,1,28.063,322H40V480H0V402.667"/><path class="cls-1" d="M0,480V446.173a22.916,22.916,0,0,1,1.861-9.047l13.354-31.09A13.275,13.275,0,0,1,27.413,398H40v5.333H28.005a8.113,8.113,0,0,0-7.451,4.9L7.574,438.349A19.274,19.274,0,0,0,6,445.976V480"/><path class="cls-2" d="M13.031,162.773H39.688a0,0,0,0,1,0,0v74a0,0,0,0,1,0,0H13.031a6.344,6.344,0,0,1-6.344-6.344V169.117A6.344,6.344,0,0,1,13.031,162.773Z"/><path class="cls-2" d="M13.031,242.273H39.688a0,0,0,0,1,0,0v74a0,0,0,0,1,0,0H13.031a6.344,6.344,0,0,1-6.344-6.344V248.617A6.344,6.344,0,0,1,13.031,242.273Z"/><path class="cls-2" d="M13.031,83.273H39.688a0,0,0,0,1,0,0v74a0,0,0,0,1,0,0H13.031a6.344,6.344,0,0,1-6.344-6.344V89.617A6.344,6.344,0,0,1,13.031,83.273Z"/></g></g></svg>