<svg xmlns="http://www.w3.org/2000/svg" viewBox="0 0 40 480"><defs><style>.cls-1{fill:#31313a;}.cls-2{fill:#2a2a33;}.cls-3{fill:#27272e;}</style></defs><g id="Layer_2" data-name="Layer 2"><g id="Layer_1-2" data-name="Layer 1"><polygon class="cls-1" points="40 480 0 480 0 366.557 0 0 40 0 40 480"/><path class="cls-2" d="M0,0V42.667H0a5.926,5.926,0,0,1,5.065,2.848L20.938,71.629A10.482,10.482,0,0,0,29.9,76.667H40V0"/><path class="cls-2" d="M0,50H0L15.249,75.416a16.309,16.309,0,0,0,13.985,7.917H40v69.334H0"/><rect class="cls-3" y="152.667" width="40" height="104.667"/><path class="cls-2" d="M0,359.854,16.091,323.68a12.463,12.463,0,0,1,11.386-7.4H40l-.062-58.95H.094"/><path class="cls-2" d="M.094,366.7h0a5.053,5.053,0,0,0,4.563-2.988L21.4,326.317A7.3,7.3,0,0,1,28.063,322H40V480H0V402.667"/><path class="cls-1" d="M0,480V446.173a22.916,22.916,0,0,1,1.861-9.047l13.354-31.09A13.275,13.275,0,0,1,27.413,398H40v5.333H28.005a8.113,8.113,0,0,0-7.451,4.9L7.574,438.349A19.274,19.274,0,0,0,6,445.976V480"/></g></g></svg>